<?xml version="1.0" encoding="utf-8"?>
<!-- Generator: Adobe Illustrator 21.0.0, SVG Export Plug-In . SVG Version: 6.00 Build 0)  -->
<svg version="1.1" id="Capa_1" xmlns="http://www.w3.org/2000/svg" xmlns:xlink="http://www.w3.org/1999/xlink" x="0px" y="0px"
	 viewBox="0 0 90 46" style="enable-background:new 0 0 90 46;" xml:space="preserve">
<style type="text/css">
	.st0{fill:#FFFFFF;stroke:#FFFFFF;stroke-miterlimit:10;}
</style>
<g>
	<path class="st0" d="M14,18.6c0.3,0.2,0.7,0.3,1,0.4c0.3,0.1,0.7,0.1,1.1,0.1c0.9,0,1.6-0.2,2.1-0.6c0.5-0.4,0.8-1,0.8-1.7
		c0-0.8-0.7-1.8-2.1-2.9l0,0c0,0-0.1-0.1-0.1-0.1c-2-1.6-3-3-3-4.2c0-0.6,0.1-1.1,0.4-1.6s0.6-1.1,1.1-1.5c0.7-0.7,1.4-1.2,2.2-1.5
		c0.8-0.3,1.6-0.5,2.4-0.5c0.6,0,1.1,0.1,1.4,0.3c0.3,0.2,0.5,0.5,0.5,0.9c0,0.1-0.1,0.3-0.2,0.6c-0.1,0.2-0.3,0.5-0.5,0.8
		c-0.3-0.1-0.6-0.2-0.9-0.3c-0.3-0.1-0.6-0.1-1-0.1c-1,0-1.7,0.2-2.3,0.7S16.1,8.3,16.1,9c0,0.5,0.1,0.9,0.3,1.2
		c0.2,0.4,0.7,0.8,1.3,1.4c0.1,0.1,0.2,0.2,0.4,0.3c2.1,1.7,3.2,3.2,3.2,4.4c0,0.5-0.1,0.9-0.2,1.4c-0.2,0.5-0.4,0.9-0.7,1.3
		c-0.6,0.7-1.2,1.2-2.1,1.6c-0.8,0.4-1.7,0.6-2.7,0.6c-0.7,0-1.1-0.1-1.5-0.3s-0.5-0.6-0.5-1c0-0.2,0.1-0.4,0.1-0.6
		C13.6,19.1,13.8,18.9,14,18.6z"/>
	<path class="st0" d="M32.2,18.7c0.2,0.2,0.3,0.4,0.4,0.6c0.1,0.2,0.1,0.3,0.1,0.5c0,0.4-0.3,0.7-0.9,1s-1.4,0.4-2.4,0.4
		c-1.9,0-3.3-0.5-4.3-1.5c-1-1-1.6-2.4-1.6-4.2c0-1.8,0.5-3.2,1.6-4.4c1.1-1.1,2.4-1.7,4.1-1.7c1.2,0,2.3,0.3,3.1,1.1
		c0.8,0.7,1.2,1.6,1.2,2.8c0,0.9-0.3,1.5-1,1.9c-0.7,0.4-1.8,0.6-3.4,0.6c-0.6,0-1.2,0-1.8-0.1c-0.6-0.1-1.2-0.1-1.8-0.2v0.2
		c0,1.2,0.3,2.1,1.1,2.8c0.7,0.7,1.7,1.1,2.9,1.1c0.6,0,1.1-0.1,1.6-0.2C31.3,19.2,31.8,19,32.2,18.7z M25.5,14.2
		c0.5,0.1,1.1,0.2,1.7,0.2c0.6,0.1,1.3,0.1,2,0.1c1,0,1.6-0.1,1.9-0.3c0.3-0.2,0.5-0.5,0.5-1c0-0.7-0.2-1.2-0.7-1.6
		c-0.5-0.4-1.1-0.6-2-0.6c-0.9,0-1.6,0.3-2.2,0.8C26.1,12.4,25.6,13.2,25.5,14.2z"/>
	<path class="st0" d="M44.8,20.5c-0.3,0.2-0.6,0.3-0.8,0.5c-0.2,0.1-0.5,0.2-0.6,0.2c-0.3,0-0.6-0.1-0.7-0.3c-0.2-0.2-0.2-0.5-0.3-1
		c-0.6,0.5-1.1,0.8-1.7,1.1c-0.6,0.2-1.1,0.3-1.7,0.3c-1.1,0-2.1-0.3-2.8-1c-0.7-0.6-1.1-1.5-1.1-2.5c0-1.2,0.5-2.1,1.5-2.9
		c1-0.7,2.3-1.1,3.9-1.1c0.3,0,0.6,0,0.8,0.1c0.3,0,0.6,0.1,1,0.1c0-0.1,0-0.1,0.1-0.2c0-0.1,0-0.2,0-0.3c0-0.8-0.2-1.4-0.7-1.8
		c-0.5-0.4-1.1-0.6-2-0.6c-0.7,0-1.3,0.1-1.7,0.3c-0.5,0.2-0.8,0.6-1.1,1.1c-0.3-0.1-0.5-0.2-0.6-0.3C36,12,36,11.8,36,11.5
		c0-0.6,0.3-1,1.1-1.4c0.7-0.3,1.6-0.6,2.8-0.6c1.4,0,2.5,0.3,3.2,1c0.7,0.7,1.1,1.7,1.1,3c0,0.2,0,0.7-0.1,1.3
		c0,0.6-0.1,1.1-0.1,1.5c0,1.1,0.1,1.9,0.2,2.5C44.3,19.6,44.5,20.1,44.8,20.5z M42.3,15.5c-0.3-0.1-0.7-0.1-1-0.1
		c-0.3,0-0.5-0.1-0.7-0.1c-1.2,0-2.1,0.2-2.7,0.6s-0.9,1-0.9,1.7c0,0.6,0.2,1.1,0.6,1.5c0.4,0.3,1,0.6,1.7,0.6
		c0.6,0,1.1-0.1,1.6-0.3c0.5-0.2,1-0.5,1.4-1c0-0.4,0-0.7-0.1-1c0-0.2,0-0.5,0-0.7c0-0.1,0-0.3,0-0.7C42.3,15.8,42.3,15.6,42.3,15.5
		z"/>
	<path class="st0" d="M49.4,12.1c0.6-0.8,1.1-1.4,1.6-1.8c0.5-0.4,1-0.6,1.5-0.6c0.5,0,0.8,0.1,1.1,0.4c0.3,0.3,0.5,0.6,0.5,1
		c0,0.3-0.1,0.5-0.3,0.8c-0.2,0.2-0.5,0.5-0.8,0.7c-0.1-0.3-0.3-0.6-0.5-0.7c-0.2-0.2-0.4-0.2-0.7-0.2c-0.4,0-0.8,0.2-1.2,0.6
		c-0.4,0.4-0.8,0.9-1.2,1.6c-0.1,0.3-0.1,0.7-0.1,1.1c0,0.3-0.1,0.7-0.1,1c0,1.1,0.1,2.1,0.2,2.9s0.3,1.4,0.6,1.9
		c-0.3,0.2-0.6,0.3-0.9,0.4c-0.3,0.1-0.6,0.1-0.8,0.1c-0.4,0-0.6-0.1-0.8-0.3c-0.2-0.2-0.2-0.6-0.2-1.1c0-0.2,0.1-1,0.1-2.4
		c0.2-1.4,0.2-2.7,0.2-3.9c0-1-0.1-1.7-0.1-2.3c-0.1-0.5-0.2-1-0.4-1.4c0.2-0.1,0.3-0.1,0.5-0.1c0.2,0,0.3-0.1,0.5-0.1
		c0.5,0,0.8,0.1,1,0.3c0.2,0.2,0.3,0.6,0.3,1c0,0.1,0,0.2,0,0.4C49.5,11.6,49.4,11.8,49.4,12.1z"/>
	<path class="st0" d="M63.1,11.9c-0.3-0.2-0.6-0.3-0.9-0.4c-0.3-0.1-0.6-0.1-1-0.1c-1.2,0-2.1,0.4-2.9,1.2c-0.8,0.8-1.2,1.9-1.2,3.2
		c0,1.2,0.3,2.1,1,2.8c0.7,0.7,1.6,1,2.8,1c0.5,0,1-0.1,1.4-0.2c0.4-0.1,0.8-0.3,1.2-0.6c0.1,0.2,0.2,0.4,0.3,0.6
		c0.1,0.2,0.1,0.3,0.1,0.5c0,0.5-0.3,0.8-0.8,1.1c-0.6,0.3-1.3,0.5-2.3,0.5c-1.7,0-3-0.5-4.1-1.5c-1.1-1-1.6-2.2-1.6-3.8
		c0-1.9,0.6-3.4,1.9-4.7c1.3-1.3,2.8-1.9,4.6-1.9c0.7,0,1.2,0.1,1.5,0.3c0.3,0.2,0.5,0.5,0.5,0.9c0,0.2-0.1,0.4-0.2,0.6
		C63.5,11.5,63.4,11.6,63.1,11.9z"/>
	<path class="st0" d="M68.6,20.6c-0.3,0.2-0.6,0.3-0.8,0.4c-0.3,0.1-0.6,0.1-0.8,0.1c-0.3,0-0.6-0.1-0.7-0.3
		c-0.1-0.2-0.2-0.6-0.2-1.2c0-0.2,0.1-1.3,0.2-3.4c0.1-2.1,0.2-4.2,0.2-6.1c0-1.9-0.1-3.2-0.1-3.8S66,5.2,65.8,4.8
		c0.3-0.2,0.6-0.3,0.9-0.4c0.3-0.1,0.5-0.1,0.7-0.1c0.3,0,0.6,0.1,0.7,0.3c0.1,0.2,0.2,0.6,0.2,1.2c0,0.1-0.1,0.7-0.1,1.8
		c-0.1,1.1-0.1,2.2-0.1,3.3c0.6-0.4,1.2-0.7,1.8-1c0.6-0.2,1.2-0.3,1.7-0.3c1.3,0,2.3,0.4,3,1.2c0.7,0.8,1.1,1.9,1.1,3.3
		c0,0.3,0,0.7-0.1,1.4c0,0.7-0.1,1.2-0.1,1.5c0,1,0.1,1.8,0.1,2.4c0.1,0.5,0.2,1,0.5,1.3c-0.3,0.2-0.7,0.3-1,0.4
		c-0.3,0.1-0.5,0.1-0.7,0.1c-0.3,0-0.6-0.1-0.7-0.3c-0.1-0.2-0.2-0.6-0.2-1.1c0-0.3,0-1,0.1-2c0.1-1,0.1-1.7,0.1-2.4
		c0-1.6-0.2-2.6-0.6-3.3c-0.4-0.7-1-1-1.9-1c-0.5,0-1,0.1-1.5,0.3c-0.5,0.2-1.1,0.5-1.7,0.9C68,13,68,13.6,68,14.3c0,0.7,0,1.4,0,2
		c0,1.3,0.1,2.3,0.1,2.9C68.2,19.7,68.4,20.2,68.6,20.6z"/>
	<path class="st0" d="M31.6,25.5c-0.1,0.5-0.2,1-0.3,1.5s-0.1,1.1-0.1,1.7c0,2.5,0.2,4.7,0.5,6.8c0.3,2.1,0.8,3.8,1.4,5.3
		c-0.4,0.2-0.7,0.3-1,0.5c-0.3,0.1-0.6,0.2-1,0.2c-0.3,0-0.6-0.1-0.7-0.2C30.2,41.1,30,41,30,40.6c-0.1-0.2-0.1-1.6-0.2-4.2
		c-0.1-2.6-0.3-5.2-0.5-7.7c-1.6,3-3.3,6.3-5.1,9.9c-0.3,0.7-0.6,1.1-0.7,1.4c-0.2,0.3-0.3,0.5-0.5,0.6c-0.2,0.1-0.3,0.2-0.5,0.2
		c-0.4,0-0.7-0.4-1.1-1.2c-0.1-0.2-0.2-0.3-0.2-0.5c-1.2-2.5-2.3-4.6-3.2-6.3c-0.8-1.7-1.6-3-2.1-4c-0.1,1.9-0.3,4.3-0.4,7.2
		s-0.3,4.4-0.4,4.9c-0.1,0.2-0.2,0.4-0.3,0.5c-0.2,0.1-0.3,0.2-0.6,0.2c-0.2,0-0.5-0.1-0.7-0.2s-0.6-0.2-1-0.5
		c0.6-1.5,1.1-3.3,1.4-5.3c0.3-2.1,0.5-4.3,0.5-6.9c0-0.6-0.1-1.2-0.1-1.7c-0.1-0.5-0.2-1-0.3-1.5c0.2-0.2,0.5-0.4,0.7-0.5
		c0.2-0.1,0.5-0.2,0.7-0.2c0.7,0,1.9,1.7,3.6,5.1c0.6,1.3,1.1,2.3,1.5,3c0.8,1.7,1.5,2.9,1.8,3.4c0.3,0.6,0.5,0.8,0.6,0.8
		c0.2,0,1.2-1.9,3.2-5.7c0.8-1.6,1.4-2.8,1.9-3.8c0.5-1,1-1.7,1.4-2.2c0.4-0.5,0.8-0.7,1.2-0.7c0.2,0,0.5,0.1,0.7,0.2
		C31.1,25.1,31.3,25.3,31.6,25.5z"/>
	<path class="st0" d="M40.8,41.8c-1.8,0-3.2-0.6-4.3-1.6c-1.1-1.1-1.7-2.5-1.7-4.2c0-1.8,0.6-3.3,1.8-4.4c1.2-1.1,2.8-1.7,4.7-1.7
		c1.7,0,3.2,0.6,4.3,1.6c1.1,1.1,1.7,2.5,1.7,4.1c0,0.7-0.1,1.4-0.3,2c-0.2,0.7-0.5,1.2-0.8,1.7c-0.7,0.9-1.5,1.5-2.3,2
		C42.8,41.5,41.8,41.8,40.8,41.8z M40.9,40.1c1.2,0,2.3-0.4,3-1.2c0.8-0.8,1.2-1.9,1.2-3.2c0-1.3-0.4-2.3-1.2-3.1
		c-0.7-0.8-1.7-1.2-3-1.2s-2.3,0.4-3,1.2c-0.8,0.8-1.2,1.9-1.2,3.3c0,1.2,0.4,2.3,1.2,3C38.8,39.7,39.8,40.1,40.9,40.1z"/>
	<path class="st0" d="M48.3,31.6c0.3-0.6,0.6-1,0.8-1.2c0.3-0.2,0.5-0.4,0.8-0.4c0.3,0,0.7,0.2,1,0.7c0.3,0.5,0.7,1.6,1.3,3.3
		c0.1,0.2,0.2,0.6,0.3,1.1c0.9,2.9,1.5,4.3,1.7,4.3c0.1,0,0.3-0.2,0.7-0.6c0.3-0.4,0.7-1,1-1.6c0.6-1.2,1.1-2.3,1.4-3.2
		c0.3-0.9,0.5-1.7,0.5-2.5c0-0.2,0-0.5-0.1-0.7s-0.1-0.5-0.2-0.7C57.7,30,57.8,30,58,30c0.2,0,0.3-0.1,0.5-0.1
		c0.5,0,0.9,0.1,1.1,0.3c0.2,0.2,0.3,0.5,0.3,0.9c0,0.8-0.2,1.7-0.7,3c-0.5,1.2-1.2,2.6-2.2,4.1c-0.8,1.3-1.5,2.2-1.9,2.6
		c-0.5,0.5-1,0.7-1.4,0.7c-0.7,0-1.4-1.1-2.1-3.3c-0.2-0.7-0.5-1.4-0.6-1.8c-0.5-1.4-0.9-2.5-1.4-3.3C49.2,32.5,48.7,31.9,48.3,31.6
		z"/>
	<path class="st0" d="M65.3,41c-0.3,0.2-0.6,0.3-0.9,0.4c-0.3,0.1-0.6,0.1-0.8,0.1c-0.4,0-0.6-0.1-0.8-0.3c-0.1-0.2-0.2-0.6-0.2-1.2
		c0-0.3,0.1-1.1,0.1-2.4s0.1-2.3,0.1-3.2c0-1-0.1-1.7-0.1-2.3c-0.1-0.6-0.2-1.1-0.5-1.5c0.3-0.2,0.6-0.3,0.9-0.4
		c0.3-0.1,0.6-0.1,0.9-0.1c0.3,0,0.6,0.1,0.7,0.3c0.1,0.2,0.2,0.5,0.2,1c0,0.1-0.1,0.8-0.1,2c-0.1,1.2-0.1,2.4-0.1,3.5
		c0,1,0.1,1.9,0.2,2.5C64.9,39.9,65,40.5,65.3,41z M65.2,26.5c0,0.5-0.2,0.8-0.5,1.1C64.4,27.8,64,28,63.5,28c-0.4,0-0.7-0.1-1-0.3
		c-0.2-0.2-0.3-0.6-0.3-1c0-0.5,0.2-0.8,0.5-1.1c0.3-0.3,0.7-0.5,1.1-0.5c0.4,0,0.7,0.1,1,0.4C65,25.8,65.2,26.2,65.2,26.5z"/>
	<path class="st0" d="M76.3,39c0.2,0.2,0.3,0.4,0.4,0.6c0.1,0.2,0.1,0.3,0.1,0.5c0,0.4-0.3,0.7-0.9,1c-0.6,0.3-1.4,0.4-2.4,0.4
		c-1.9,0-3.3-0.5-4.3-1.5c-1-1-1.6-2.4-1.6-4.2c0-1.8,0.5-3.2,1.6-4.4c1.1-1.1,2.4-1.7,4.1-1.7c1.2,0,2.3,0.3,3.1,1.1
		c0.8,0.7,1.2,1.6,1.2,2.8c0,0.9-0.3,1.5-1,1.9c-0.7,0.4-1.8,0.6-3.4,0.6c-0.6,0-1.2,0-1.8-0.1c-0.6-0.1-1.2-0.1-1.8-0.2V36
		c0,1.2,0.3,2.1,1.1,2.8c0.7,0.7,1.7,1.1,2.9,1.1c0.6,0,1.1-0.1,1.6-0.2C75.5,39.6,75.9,39.3,76.3,39z M69.6,34.5
		c0.5,0.1,1.1,0.2,1.7,0.2c0.6,0.1,1.3,0.1,2,0.1c1,0,1.6-0.1,1.9-0.3c0.3-0.2,0.5-0.5,0.5-1c0-0.7-0.2-1.2-0.7-1.6
		c-0.5-0.4-1.1-0.6-2-0.6c-0.9,0-1.6,0.3-2.2,0.8C70.1,32.7,69.8,33.5,69.6,34.5z"/>
</g>
</svg>
